<?xml version="1.0" standalone="no"?>
<!DOCTYPE svg PUBLIC "-//W3C//DTD SVG 20010904//EN"
 "http://www.w3.org/TR/2001/REC-SVG-20010904/DTD/svg10.dtd">
<svg version="1.0" xmlns="http://www.w3.org/2000/svg"
 width="300.000000pt" height="250.000000pt" viewBox="0 0 300.000000 250.000000"
 preserveAspectRatio="xMidYMid meet">
<metadata>
Created by potrace 1.16, written by Peter Selinger 2001-2019
</metadata>
<g transform="translate(0.000000,250.000000) scale(0.100000,-0.100000)"
fill="#000000" stroke="none">
<path d="M1515 2360 c-8 -13 4 -50 16 -50 5 0 9 6 9 14 0 8 5 16 12 18 15 5 1
28 -17 28 -8 0 -17 -5 -20 -10z"/>
<path d="M1386 2291 c-16 -17 -16 -19 0 -25 20 -8 19 -8 28 22 9 27 -5 29 -28
3z"/>
<path d="M1583 2293 c-15 -5 -18 -53 -3 -53 6 0 10 4 10 10 0 5 6 7 14 4 8 -3
17 -1 20 4 7 13 -26 41 -41 35z"/>
<path d="M1089 2278 c-1 -7 -1 -21 0 -30 2 -13 -5 -18 -24 -18 -24 0 -26 -3
-21 -25 4 -17 2 -25 -6 -25 -7 0 -5 -5 6 -11 14 -9 20 -8 27 2 7 11 9 10 9 -5
0 -12 5 -16 16 -12 9 3 23 6 31 6 10 0 14 6 11 18 -3 11 8 27 33 47 21 17 38
33 39 38 0 11 -30 8 -71 -7 -35 -12 -35 -12 -31 11 2 13 -1 23 -7 23 -6 0 -12
-6 -12 -12z m41 -52 c0 -2 -7 -9 -15 -16 -13 -11 -14 -10 -9 4 5 14 24 23 24
12z"/>
<path d="M1507 2283 c-8 -8 -9 -43 -1 -43 16 0 44 23 44 35 0 15 -31 21 -43 8z"/>
<path d="M1890 2274 c0 -8 5 -12 10 -9 6 3 10 10 10 16 0 5 -4 9 -10 9 -5 0
-10 -7 -10 -16z"/>
<path d="M1330 2256 c0 -7 9 -16 20 -19 23 -6 26 3 8 21 -16 16 -28 15 -28 -2z"/>
<path d="M1272 2248 c6 -18 48 -30 48 -14 0 8 -7 17 -16 20 -24 9 -36 7 -32
-6z"/>
<path d="M1383 2227 c4 -10 -8 -14 -46 -15 -29 0 -53 -5 -55 -11 -6 -19 -72
-85 -78 -78 -4 4 -1 13 6 22 21 25 -62 21 -85 -5 -10 -11 -24 -20 -32 -20 -7
0 -13 -4 -13 -10 0 -5 -6 -7 -14 -4 -10 4 -13 0 -9 -14 3 -14 -7 -29 -36 -54
-35 -30 -55 -68 -35 -68 13 0 68 66 66 78 -2 7 5 15 15 19 10 3 25 12 33 19
18 15 71 6 77 -13 3 -7 -4 -9 -16 -6 -16 4 -21 1 -21 -15 0 -25 19 -39 29 -23
5 8 22 9 50 5 32 -5 45 -3 51 7 5 7 13 10 17 5 4 -4 0 -14 -11 -21 -11 -8 -16
-21 -13 -30 4 -8 2 -15 -3 -15 -6 0 -10 -4 -10 -10 0 -16 14 -12 40 13 14 12
28 21 33 19 4 -1 10 5 13 13 4 8 13 15 21 15 20 0 7 -40 -20 -62 -12 -9 -31
-25 -41 -34 -14 -12 -21 -14 -24 -6 -2 7 -13 12 -24 12 -15 0 -19 5 -15 20 3
13 0 20 -8 20 -8 0 -17 9 -20 20 -7 23 -23 26 -31 6 -3 -8 -12 -12 -20 -9 -10
4 -12 0 -8 -10 3 -9 1 -24 -5 -34 -9 -16 -11 -16 -12 7 -1 14 -2 31 -2 38 1 6
-5 12 -13 12 -8 0 -14 7 -14 15 0 8 -4 15 -10 15 -19 0 -10 -49 11 -60 11 -7
18 -17 16 -24 -3 -7 6 -26 19 -41 29 -34 29 -35 3 -35 -15 0 -19 5 -15 15 8
22 -24 32 -36 12 -12 -22 -42 -22 -63 -1 -9 9 -18 14 -21 11 -3 -3 9 -21 28
-40 18 -18 38 -48 45 -65 10 -30 10 -31 -8 -21 -11 5 -17 14 -14 20 4 5 1 9
-4 9 -6 0 -11 5 -11 11 0 6 -16 27 -36 46 -35 34 -36 34 -30 10 3 -14 3 -27
-2 -30 -4 -2 -1 -2 6 -1 14 4 16 -22 2 -31 -5 -3 -10 -15 -10 -26 0 -15 5 -18
26 -15 15 3 24 2 21 -1 -4 -3 -2 -14 4 -24 7 -13 7 -25 0 -37 -9 -15 -10 -15
-11 5 0 31 -15 36 -28 10 -21 -44 -21 -68 -1 -88 11 -11 17 -24 14 -28 -2 -5
1 -14 9 -20 11 -9 15 -5 20 19 3 19 14 34 28 40 18 7 19 9 6 9 -10 1 -18 5
-18 10 0 16 43 41 54 32 17 -13 45 -9 39 5 -2 7 4 14 14 16 21 4 55 -21 47
-34 -3 -5 -13 -1 -21 9 -13 17 -14 17 -9 1 7 -23 -3 -50 -16 -42 -6 4 -14 0
-19 -7 -8 -11 -12 -10 -24 5 -18 24 -34 12 -17 -14 6 -11 8 -22 3 -25 -5 -3
-11 1 -14 7 -3 10 -10 8 -26 -6 -26 -24 -27 -46 -2 -46 30 0 51 -11 51 -26 0
-8 5 -14 11 -14 5 0 7 -4 4 -10 -4 -6 5 -10 19 -10 14 0 26 5 26 11 0 5 5 7
11 4 6 -5 4 -12 -7 -20 -10 -7 -15 -19 -11 -29 14 -37 66 -33 111 9 25 23 39
29 59 26 4 -1 15 6 23 14 21 21 10 75 -16 75 -18 0 -30 19 -30 46 0 8 9 14 20
14 11 0 20 5 20 12 0 6 3 9 6 5 4 -3 19 0 35 8 15 8 37 15 48 15 11 0 22 9 26
20 3 11 10 20 15 20 4 0 15 16 24 35 11 22 22 32 31 29 10 -4 17 7 25 35 17
63 49 53 55 -17 1 -15 5 -35 8 -44 21 -55 20 -54 25 -30 5 29 27 38 49 21 15
-12 16 -12 10 3 -3 9 -1 19 6 21 7 3 0 8 -15 12 -30 8 -36 20 -15 28 9 4 9 6
-1 6 -7 1 -10 6 -7 11 3 6 -1 10 -11 10 -13 0 -14 3 -5 14 9 11 8 17 -3 29
-16 15 -51 13 -62 -4 -3 -5 -16 -9 -30 -9 -15 0 -23 4 -19 11 4 6 13 8 21 5 7
-3 11 0 9 7 -11 30 -13 97 -4 97 6 0 8 -4 5 -8 -2 -4 -1 -14 4 -22 7 -12 12
-12 28 3 18 16 19 16 17 -4 -1 -11 -7 -24 -14 -28 -10 -6 -9 -10 3 -14 8 -3
17 -1 19 6 3 9 13 7 35 -5 35 -21 48 -23 34 -5 -5 6 -10 24 -10 39 l1 27 18
-22 c16 -19 20 -20 28 -7 7 10 7 16 1 18 -13 5 -13 32 0 32 13 0 13 27 1 32
-5 2 -1 14 10 27 17 20 23 22 42 13 46 -23 67 -24 74 -5 9 26 50 73 57 66 3
-4 6 6 6 20 0 25 -9 32 -34 28 -5 -1 -17 6 -27 15 -11 10 -22 14 -27 9 -4 -4
-1 -10 6 -12 6 -3 10 -9 6 -14 -3 -5 4 -9 16 -9 17 0 19 -3 10 -19 -5 -11 -7
-27 -3 -36 5 -16 3 -16 -18 -4 -13 7 -31 12 -38 10 -13 -2 -13 0 -2 13 21 25
5 31 -20 7 -12 -11 -31 -23 -41 -27 -10 -3 -15 -10 -12 -15 4 -7 -5 -9 -22 -7
-25 2 -28 7 -25 28 1 14 8 28 14 32 8 4 5 9 -7 14 -22 8 -38 -13 -29 -40 5
-17 1 -16 -27 7 -17 15 -37 24 -43 20 -6 -4 -8 0 -4 10 4 11 2 14 -9 10 -8 -3
-13 -12 -10 -19 3 -9 -2 -14 -14 -14 -11 0 -20 -4 -20 -10 0 -5 -5 -10 -11
-10 -7 0 -17 -7 -24 -16 -13 -18 -60 -10 -49 8 4 6 10 5 15 -3 7 -11 13 -9 29
11 11 14 20 30 19 35 0 6 -6 2 -13 -7 -7 -10 -22 -18 -34 -18 -18 0 -37 -24
-34 -42 1 -5 -4 -8 -12 -8 -14 0 -16 23 -3 36 14 14 7 25 -10 16 -11 -5 -26
-4 -40 3 l-23 12 24 13 c29 15 42 50 19 50 -8 0 -13 -6 -10 -13z m-13 -77 c0
-5 -7 -10 -15 -10 -8 0 -15 5 -15 10 0 6 7 10 15 10 8 0 15 -4 15 -10z m268
-61 c7 -12 11 -23 8 -26 -3 -3 -8 2 -12 11 -4 11 -13 15 -25 11 -21 -7 -27 10
-6 18 20 9 22 8 35 -14z m-411 -19 c2 -18 0 -18 -13 -6 -17 18 -18 26 -1 26 7
0 13 -9 14 -20z m45 -12 l-22 -22 0 21 c0 12 7 23 18 25 27 6 28 -1 4 -24z
m178 22 c0 -5 -10 -10 -22 -11 -13 0 -17 -3 -10 -6 23 -9 12 -19 -21 -19 -24
1 -37 7 -43 21 -9 19 -6 20 43 23 32 2 53 -1 53 -8z m-120 -4 c0 -3 -4 -8 -10
-11 -5 -3 -10 -1 -10 4 0 6 5 11 10 11 6 0 10 -2 10 -4z m380 -16 c0 -5 -7 -7
-15 -4 -11 5 -13 2 -9 -10 3 -9 2 -16 -3 -16 -17 0 -23 13 -12 27 13 15 39 18
39 3z m-520 -129 c0 -5 -7 -11 -14 -14 -10 -4 -13 -1 -9 9 6 15 23 19 23 5z
m40 -5 c0 -3 -4 -8 -10 -11 -5 -3 -10 -1 -10 4 0 6 5 11 10 11 6 0 10 -2 10
-4z m160 -16 c12 -8 11 -10 -7 -10 -13 0 -23 5 -23 10 0 13 11 13 30 0z m100
6 c0 -2 -7 -7 -16 -10 -8 -3 -12 -2 -9 4 6 10 25 14 25 6z m15 -56 c3 -5 1
-10 -4 -10 -6 0 -11 5 -11 10 0 6 2 10 4 10 3 0 8 -4 11 -10z m-257 -9 c4 -1
0 -6 -8 -11 -19 -12 -100 -13 -100 -1 0 13 65 20 108 12z m177 -61 c7 0 16 6
18 13 4 9 8 8 16 -3 14 -19 14 -33 1 -25 -5 3 -10 1 -10 -5 0 -6 -8 -9 -18 -6
-9 3 -32 2 -50 -3 -39 -12 -40 -5 -4 38 25 31 27 32 30 12 2 -11 9 -21 17 -21z
m225 20 c0 -5 -2 -10 -4 -10 -3 0 -8 5 -11 10 -3 6 -1 10 4 10 6 0 11 -4 11
-10z m-240 -74 c0 -3 -4 -8 -10 -11 -5 -3 -10 -1 -10 4 0 6 5 11 10 11 6 0 10
-2 10 -4z m-165 -48 c18 -8 24 -17 19 -30 -3 -10 -1 -18 4 -18 15 0 21 -35 9
-56 -8 -16 -7 -17 4 -6 18 16 29 15 29 -3 0 -14 -17 -20 -50 -15 -21 2 -41 31
-32 44 15 20 13 66 -3 72 -8 4 -15 10 -15 15 0 12 4 11 35 -3z m-45 -18 c0 -5
-4 -10 -10 -10 -5 0 -10 5 -10 10 0 6 5 10 10 10 6 0 10 -4 10 -10z m30 -20
c0 -5 -4 -10 -10 -10 -5 0 -10 5 -10 10 0 6 5 10 10 10 6 0 10 -4 10 -10z
m-70 -9 c0 -5 -9 -11 -20 -14 -22 -6 -28 8 -7 16 19 8 27 8 27 -2z m90 -101
c0 -5 -5 -10 -11 -10 -5 0 -7 5 -4 10 3 6 8 10 11 10 2 0 4 -4 4 -10z"/>
<path d="M1178 2213 c-14 -17 -3 -29 36 -39 25 -6 28 -4 23 10 -4 10 -1 16 8
16 8 0 15 7 15 15 0 19 -66 17 -82 -2z"/>
<path d="M2020 2185 c0 -8 5 -15 10 -15 6 0 10 7 10 15 0 8 -4 15 -10 15 -5 0
-10 -7 -10 -15z"/>
<path d="M1740 2170 c0 -5 4 -10 9 -10 6 0 13 5 16 10 3 6 -1 10 -9 10 -9 0
-16 -4 -16 -10z"/>
<path d="M1955 2159 c-10 -15 3 -25 16 -12 7 7 7 13 1 17 -6 3 -14 1 -17 -5z"/>
<path d="M1004 2138 c-5 -7 -9 -33 -10 -58 l-2 -44 24 29 c14 17 23 40 22 54
-3 28 -22 38 -34 19z"/>
<path d="M920 2120 c-13 -8 -12 -10 3 -10 9 0 17 5 17 10 0 12 -1 12 -20 0z"/>
<path d="M1945 2088 c-4 -10 -14 -18 -23 -18 -13 0 -12 -3 3 -20 35 -38 60
-22 40 25 -11 25 -14 27 -20 13z"/>
<path d="M1760 2080 c0 -5 5 -10 10 -10 6 0 10 5 10 10 0 6 -4 10 -10 10 -5 0
-10 -4 -10 -10z"/>
<path d="M1113 2073 c-15 -5 -17 -23 -4 -23 5 0 11 7 15 15 3 8 4 15 3 14 -1
0 -8 -3 -14 -6z"/>
<path d="M1820 2061 c0 -5 5 -13 10 -16 6 -3 10 -2 10 4 0 5 -4 13 -10 16 -5
3 -10 2 -10 -4z"/>
<path d="M1793 2021 c3 -12 2 -21 -2 -21 -16 0 -10 -58 6 -64 9 -4 18 -4 21
-1 3 3 0 5 -8 5 -10 0 -10 3 0 15 18 22 28 18 26 -10 -1 -25 -20 -40 -37 -29
-5 3 -9 -3 -9 -12 0 -16 -1 -16 -19 0 -15 14 -24 15 -39 7 -11 -6 -22 -7 -26
-3 -4 3 -4 -1 0 -11 3 -10 1 -17 -5 -17 -22 0 -11 -18 15 -24 21 -6 25 -12 22
-31 -4 -21 -3 -23 13 -14 11 5 19 14 19 19 0 6 8 10 18 10 14 0 15 2 2 10 -17
11 -16 12 37 32 36 14 43 14 56 1 13 -13 17 -13 36 6 29 29 37 26 16 -5 -20
-32 -13 -41 40 -49 46 -7 69 4 59 28 -8 21 -24 22 -24 3 0 -8 -4 -17 -9 -20
-16 -10 -39 5 -36 22 20 99 8 117 -39 61 -14 -17 -31 -27 -37 -23 -7 4 -1 15
17 29 29 23 29 23 10 44 -11 12 -14 21 -8 21 7 0 12 3 12 8 0 4 -16 7 -35 7
-34 0 -42 -5 -28 -19 11 -11 14 -46 3 -46 -6 0 -10 6 -10 14 0 8 -7 16 -15 20
-8 3 -14 15 -12 28 1 15 -4 23 -17 26 -15 3 -18 0 -13 -17z m-33 -141 c0 -5
-5 -10 -11 -10 -5 0 -7 5 -4 10 3 6 8 10 11 10 2 0 4 -4 4 -10z"/>
<path d="M1988 2020 c-12 -11 -14 -17 -5 -17 16 0 40 24 29 30 -4 3 -15 -3
-24 -13z"/>
<path d="M2055 2020 c3 -5 11 -10 16 -10 6 0 7 5 4 10 -3 6 -11 10 -16 10 -6
0 -7 -4 -4 -10z"/>
<path d="M1220 2006 c0 -9 5 -16 10 -16 6 0 10 4 10 9 0 6 -4 13 -10 16 -5 3
-10 -1 -10 -9z"/>
<path d="M1050 1986 c0 -8 -7 -19 -17 -24 -14 -9 -13 -12 9 -36 21 -23 26 -25
36 -13 10 11 9 17 -3 27 -10 8 -12 17 -6 24 6 7 4 16 -5 24 -12 10 -14 10 -14
-2z"/>
<path d="M955 1965 c8 -37 12 -42 26 -28 8 8 5 18 -11 35 l-23 23 8 -30z"/>
<path d="M2025 1930 c-3 -5 1 -10 9 -10 9 0 16 5 16 10 0 6 -4 10 -9 10 -6 0
-13 -4 -16 -10z"/>
<path d="M1816 1861 c-4 -6 -2 -11 4 -11 13 0 -21 -49 -35 -50 -5 0 -20 -15
-32 -32 -23 -33 -16 -62 13 -51 10 3 14 -2 14 -18 0 -14 -4 -19 -8 -13 -10 15
-51 24 -58 13 -3 -5 0 -9 6 -9 6 0 10 -8 8 -17 -2 -14 3 -17 25 -15 22 3 27 0
27 -19 l0 -22 25 23 c14 13 25 20 25 15 0 -5 5 -4 11 2 8 8 16 6 30 -8 10 -10
19 -23 19 -29 0 -16 -37 -11 -44 6 -5 14 -8 14 -21 0 -11 -11 -31 -14 -76 -11
-59 4 -61 3 -71 -26 -5 -16 -15 -26 -21 -22 -6 3 -7 1 -3 -5 4 -7 4 -17 0 -23
-4 -8 -9 -7 -15 2 -7 11 -9 11 -9 -2 0 -9 3 -19 6 -22 11 -10 44 13 44 30 0
13 3 14 12 5 8 -8 18 -6 40 9 25 18 29 19 44 5 8 -9 12 -21 8 -27 -4 -8 3 -9
26 -4 23 5 30 4 26 -4 -4 -6 -15 -11 -25 -11 -25 0 -32 -10 -21 -30 7 -13 4
-22 -9 -34 -13 -11 -21 -14 -26 -7 -3 6 2 11 12 11 14 0 15 2 4 9 -7 5 -10 14
-6 21 5 9 2 10 -14 5 -23 -7 -28 4 -9 23 9 9 4 12 -25 12 -20 0 -37 -5 -37
-11 0 -6 7 -9 15 -5 9 3 15 0 15 -10 0 -11 -6 -13 -20 -9 -19 6 -20 3 -14 -22
9 -37 12 -39 34 -25 11 7 22 12 24 12 9 0 14 -44 6 -63 l-9 -22 0 23 c-1 12
-5 22 -11 22 -15 0 -12 -27 5 -60 15 -29 14 -30 -10 -36 -39 -10 -32 -41 12
-53 45 -13 52 -8 28 19 -10 11 -15 23 -11 28 4 4 16 -3 26 -15 10 -13 23 -23
29 -23 6 0 11 -4 11 -10 0 -5 -6 -10 -14 -10 -7 0 -19 -7 -26 -16 -11 -12 -11
-15 1 -12 9 2 13 -4 11 -18 -2 -17 2 -21 25 -19 47 3 53 5 52 13 -3 17 14 51
22 46 5 -3 7 -9 5 -13 -3 -4 8 -8 23 -9 24 0 28 3 24 19 -4 15 -8 17 -19 8
-11 -9 -14 -8 -14 3 0 7 -11 15 -24 16 -20 1 -26 -4 -31 -29 -5 -20 -12 -29
-23 -27 -25 5 -25 25 0 31 12 4 19 9 16 13 -8 7 15 34 29 34 4 0 16 13 25 30
11 19 24 28 37 27 12 -1 21 -5 21 -9 0 -4 7 -8 15 -8 8 0 15 8 15 18 0 15 6
18 28 14 26 -3 28 -1 28 32 0 47 8 52 40 27 39 -31 47 -27 38 22 -4 23 -7 51
-7 63 0 12 -8 24 -21 30 -17 7 -20 16 -18 44 l3 35 -20 -22 c-26 -31 -31 -29
-26 15 2 20 4 44 5 52 1 10 4 9 10 -5 7 -18 8 -18 15 -3 7 18 -14 48 -34 48
-5 0 -17 7 -25 16 -20 20 -21 48 -1 41 8 -4 17 -2 20 3 4 6 1 10 -4 10 -6 0
-11 6 -11 14 0 17 -53 32 -58 17 -6 -19 -31 -12 -34 11 -4 28 -26 35 -30 9 -2
-16 -6 -18 -18 -10 -11 8 -12 12 -2 16 17 7 15 26 -2 20 -7 -3 -18 -1 -24 5
-6 6 -12 6 -16 -1z m33 -87 c-8 -10 -15 -12 -17 -5 -4 13 -32 15 -32 2 0 -5
-8 -12 -17 -15 -15 -6 -15 -4 2 14 10 11 31 20 48 20 26 0 28 -2 16 -16z m109
-183 c7 -1 10 -5 7 -11 -3 -5 -16 -8 -28 -6 -12 2 -28 -1 -34 -6 -10 -8 -13
-5 -13 11 0 18 5 21 28 17 15 -2 33 -5 40 -5z m-25 -50 c2 -11 -3 -25 -14 -35
-16 -14 -19 -14 -19 -1 0 9 -9 15 -21 15 -17 0 -19 3 -10 14 7 8 21 12 33 8
14 -3 19 -1 14 6 -4 7 -3 12 2 12 5 0 12 -8 15 -19z m140 -12 c3 -13 0 -22
-10 -26 -15 -6 -33 12 -33 35 0 21 37 14 43 -9z m-72 -34 c19 -6 27 -35 9 -35
-5 0 -19 9 -31 21 -15 15 -24 18 -32 10 -6 -6 -16 -11 -21 -11 -6 0 3 12 19
26 24 21 31 23 33 10 2 -8 12 -18 23 -21z m-93 -55 c3 3 9 -10 13 -27 6 -28 4
-33 -13 -33 -10 0 -16 -4 -13 -10 3 -5 2 -10 -4 -10 -5 0 -12 4 -15 9 -3 4
-18 6 -32 3 -23 -4 -26 -2 -21 12 4 10 7 30 7 46 0 34 26 44 54 21 10 -9 21
-14 24 -11z m-129 -58 c8 -25 6 -31 -10 -35 -12 -3 -19 0 -19 9 0 8 5 14 10
14 6 0 8 11 4 28 -9 36 4 23 15 -16z m186 -2 c-3 -5 -10 -10 -16 -10 -5 0 -9
5 -9 10 0 6 7 10 16 10 8 0 12 -4 9 -10z"/>
<path d="M2060 1851 c-14 -27 -13 -41 4 -41 7 0 20 -10 29 -22 8 -13 19 -19
23 -15 5 5 -4 19 -21 32 -25 21 -27 25 -12 31 9 3 17 12 17 20 0 21 -28 17
-40 -5z"/>
<path d="M931 1771 c-8 -6 -9 -11 -3 -15 6 -3 14 -1 17 5 9 14 2 20 -14 10z"/>
<path d="M2055 1771 c-18 -6 -34 -51 -17 -51 8 1 46 50 40 54 -1 2 -12 0 -23
-3z"/>
<path d="M1660 1740 c0 -6 5 -8 11 -4 6 3 16 0 21 -7 8 -12 9 -11 5 1 -4 18
-37 27 -37 10z"/>
<path d="M1660 1710 c-13 -8 -12 -10 3 -10 9 0 17 5 17 10 0 12 -1 12 -20 0z"/>
<path d="M1673 1665 c-21 -24 -15 -40 7 -20 20 18 26 35 13 35 -5 -1 -14 -7
-20 -15z"/>
<path d="M1600 1662 c0 -21 26 -57 42 -58 14 -1 17 4 12 25 -8 31 -4 27 -31
35 -13 4 -23 3 -23 -2z"/>
<path d="M990 1573 c0 -13 5 -23 10 -23 13 0 13 11 0 30 -8 12 -10 11 -10 -7z"/>
<path d="M1026 1545 c-15 -11 -23 -12 -33 -3 -15 12 -28 5 -18 -11 8 -14 52
-14 60 -1 3 5 13 6 22 3 10 -4 14 -2 11 7 -6 20 -20 21 -42 5z"/>
<path d="M1346 1521 c-7 -11 21 -61 35 -61 5 0 3 12 -3 28 -16 37 -25 46 -32
33z"/>
<path d="M1052 1511 c-19 -11 3 -27 51 -36 32 -6 36 -5 31 9 -3 9 -10 16 -16
16 -5 0 -6 -4 -3 -10 3 -5 1 -10 -4 -10 -6 0 -16 9 -23 20 -14 22 -17 23 -36
11z"/>
<path d="M1286 1495 c-3 -8 -1 -15 4 -15 6 0 10 7 10 15 0 8 -2 15 -4 15 -2 0
-6 -7 -10 -15z"/>
<path d="M980 1481 c0 -5 5 -13 10 -16 6 -3 10 -2 10 4 0 5 -4 13 -10 16 -5 3
-10 2 -10 -4z"/>
<path d="M1029 1452 c-11 -14 -11 -15 1 -5 11 10 17 8 32 -9 10 -12 18 -25 18
-30 0 -13 27 -9 40 7 7 8 16 13 20 10 11 -7 23 12 15 25 -4 7 -13 7 -25 0 -14
-8 -29 -6 -54 4 -31 13 -36 13 -47 -2z"/>
<path d="M1270 1461 c-52 -13 -100 -35 -100 -47 0 -6 7 -17 15 -24 9 -8 15 -8
15 -2 0 6 -5 12 -10 14 -6 2 6 8 25 14 32 10 35 9 30 -7 -9 -27 12 -33 51 -14
38 18 48 47 12 37 -18 -4 -20 -2 -16 16 4 12 5 21 5 21 -1 -1 -13 -4 -27 -8z"/>
<path d="M1651 1455 c-1 -12 4 -26 11 -33 9 -9 8 -12 -5 -12 -9 0 -17 -7 -17
-15 0 -12 4 -14 19 -5 28 15 33 26 18 42 -8 7 -16 20 -20 28 -4 11 -6 9 -6 -5z"/>
<path d="M1350 1441 c13 -10 13 -13 -1 -24 -8 -6 -18 -20 -22 -29 -3 -10 -12
-15 -21 -12 -8 3 -17 1 -20 -4 -3 -6 -15 -8 -25 -5 -42 11 -31 -25 12 -40 15
-6 17 -3 12 13 -5 16 -2 20 19 20 13 0 36 4 49 9 22 8 24 14 18 42 -4 18 -13
34 -21 37 -13 3 -13 2 0 -7z"/>
<path d="M1037 1407 c3 -14 12 -28 20 -32 27 -10 28 5 1 31 l-26 26 5 -25z"/>
<path d="M1611 1414 c0 -11 3 -14 6 -6 3 7 2 16 -1 19 -3 4 -6 -2 -5 -13z"/>
<path d="M2058 1413 c6 -2 12 -11 12 -19 0 -8 5 -14 11 -14 20 0 -11 -29 -34
-32 -12 -2 -20 -7 -17 -13 3 -5 16 -8 29 -6 14 1 21 -1 17 -7 -8 -14 8 -24 27
-16 29 11 -14 116 -47 113 -6 0 -6 -3 2 -6z"/>
<path d="M1664 1366 c-22 -12 -21 -36 2 -36 8 0 14 9 14 19 0 11 6 22 13 24 6
3 8 5 2 5 -5 0 -19 -5 -31 -12z"/>
<path d="M1119 1351 c-34 -18 -37 -18 -54 -3 -14 14 -17 14 -13 2 2 -8 18 -21
34 -29 16 -8 32 -18 35 -24 4 -5 10 -4 15 4 4 7 3 14 -4 17 -7 2 -12 8 -12 14
0 5 9 6 20 3 12 -4 20 -2 20 5 0 6 4 9 9 6 13 -8 10 -57 -3 -53 -6 2 -17 -3
-25 -10 -10 -10 -17 -11 -24 -4 -15 15 -50 14 -41 0 4 -7 1 -10 -7 -7 -8 3
-13 13 -13 22 1 9 -2 16 -7 16 -18 0 -8 -46 12 -58 15 -10 19 -20 15 -37 -3
-13 -2 -27 4 -30 5 -3 10 -1 10 4 0 6 10 11 23 10 19 0 18 -2 -10 -16 -18 -9
-33 -20 -33 -24 0 -4 -7 -15 -16 -24 -9 -9 -14 -19 -10 -22 8 -8 36 17 36 33
0 15 12 19 23 7 4 -3 -1 -12 -10 -18 -15 -11 -15 -15 -4 -29 13 -15 11 -16
-15 -12 -27 5 -31 1 -54 -49 -25 -52 -25 -54 -8 -75 22 -27 23 -44 3 -36 -8 3
-15 1 -15 -5 0 -6 8 -9 18 -7 9 1 23 -1 30 -6 11 -7 12 -4 3 12 -16 30 -14 42
8 42 11 0 23 5 26 10 3 6 2 10 -2 10 -5 0 -9 9 -10 20 -1 12 4 20 13 20 11 0
13 6 9 19 -5 18 -2 19 32 14 41 -6 54 -13 37 -20 -7 -2 -10 -13 -7 -23 3 -12
0 -20 -6 -20 -7 0 -11 -6 -9 -14 2 -8 -1 -15 -7 -15 -5 0 -9 14 -7 30 3 37
-21 35 -26 -2 -2 -13 -11 -29 -19 -36 -13 -10 -14 -15 -3 -28 7 -8 19 -15 26
-15 8 0 14 -6 15 -12 0 -7 5 -2 11 12 l10 25 9 -24 c7 -18 5 -26 -7 -36 -20
-14 -10 -37 11 -29 8 4 12 11 8 17 -3 6 -1 7 6 3 12 -8 41 10 41 25 0 5 -6 9
-14 9 -8 0 -16 7 -19 14 -4 10 -1 13 9 9 8 -3 20 2 27 11 15 20 61 11 53 -11
-4 -9 -1 -13 6 -11 21 7 21 36 -1 54 -19 16 -19 18 -3 32 9 7 12 11 6 8 -7 -3
-11 4 -11 20 0 17 4 24 13 20 8 -3 14 1 14 9 0 18 -5 19 -30 3 -15 -10 -22
-10 -32 0 -9 9 -9 12 3 12 12 0 12 2 -1 10 -13 9 -13 11 0 20 27 17 -1 31 -40
20 -18 -5 -36 -8 -38 -5 -3 3 -11 -3 -19 -13 -12 -16 -13 -15 -6 3 3 11 10 26
16 33 11 14 31 17 22 2 -7 -12 2 -12 30 0 l20 9 -20 1 -20 1 20 9 c25 11 48
12 42 3 -3 -5 0 -21 7 -38 7 -16 15 -25 18 -20 3 6 -1 25 -8 43 -13 30 -26 37
-64 33 -11 -1 -10 2 4 10 13 8 25 8 42 0 16 -7 25 -7 30 0 3 6 16 14 29 19 15
6 22 16 21 32 -1 23 15 48 32 48 13 0 33 48 22 55 -5 3 -11 1 -15 -5 -12 -19
-71 -39 -112 -37 -32 1 -39 4 -31 14 8 10 6 13 -5 13 -8 0 -20 7 -27 15 -16
19 -18 19 -61 -4z m211 -37 c0 -3 -7 -12 -15 -20 -8 -9 -15 -24 -15 -35 0 -17
-3 -18 -20 -9 -16 9 -18 8 -14 -5 5 -11 2 -13 -10 -9 -13 5 -15 2 -9 -12 6
-16 4 -17 -9 -7 -8 7 -19 9 -23 5 -5 -4 0 9 11 28 11 19 24 35 30 35 21 2 54
17 54 26 0 5 5 9 10 9 6 0 10 -3 10 -6z m-260 -258 c0 -6 -7 -19 -14 -29 -14
-18 -14 -18 -18 0 -6 29 3 52 18 46 8 -3 14 -10 14 -17z"/>
<path d="M2160 1356 c0 -8 5 -18 10 -21 6 -3 10 3 10 14 0 12 -4 21 -10 21 -5
0 -10 -6 -10 -14z"/>
<path d="M1696 1345 c-3 -8 -1 -15 4 -15 6 0 10 7 10 15 0 8 -2 15 -4 15 -2 0
-6 -7 -10 -15z"/>
<path d="M1010 1342 c0 -12 19 -26 26 -19 2 2 -2 10 -11 17 -9 8 -15 8 -15 2z"/>
<path d="M1615 1330 c3 -5 11 -10 16 -10 6 0 7 5 4 10 -3 6 -11 10 -16 10 -6
0 -7 -4 -4 -10z"/>
<path d="M1915 1330 c-3 -5 3 -10 15 -10 12 0 18 5 15 10 -3 6 -10 10 -15 10
-5 0 -12 -4 -15 -10z"/>
<path d="M1960 1324 c0 -17 17 -36 24 -26 3 5 -1 15 -9 22 -8 7 -15 9 -15 4z"/>
<path d="M2135 1300 c-3 -5 1 -10 9 -10 9 0 16 5 16 10 0 6 -4 10 -9 10 -6 0
-13 -4 -16 -10z"/>
<path d="M988 1283 c7 -3 16 -2 19 1 4 3 -2 6 -13 5 -11 0 -14 -3 -6 -6z"/>
<path d="M1605 1280 c3 -5 11 -10 16 -10 6 0 7 5 4 10 -3 6 -11 10 -16 10 -6
0 -7 -4 -4 -10z"/>
<path d="M2100 1275 c0 -16 16 -20 24 -6 3 5 -1 11 -9 15 -9 3 -15 0 -15 -9z"/>
<path d="M1940 1270 c0 -6 11 -12 24 -16 14 -3 27 -12 30 -20 7 -17 -49 -80
-58 -65 -4 6 -13 8 -21 4 -10 -3 -15 1 -15 12 0 14 -6 16 -32 11 -39 -8 -49
-22 -37 -54 7 -18 6 -28 -2 -32 -8 -6 -8 -9 0 -14 8 -5 8 -13 1 -27 -9 -16
-14 -17 -32 -6 -33 18 -46 32 -51 53 -2 10 -3 3 -1 -16 2 -19 11 -41 21 -47 9
-7 12 -13 6 -13 -7 0 -18 7 -26 15 -12 11 -16 12 -20 2 -2 -6 -8 -9 -12 -5 -4
4 -2 15 6 24 12 14 11 16 -6 13 -15 -3 -20 -13 -21 -41 -1 -23 3 -39 12 -42 7
-3 11 -12 8 -20 -3 -8 -1 -17 5 -21 6 -3 11 -1 11 5 0 7 9 5 22 -4 26 -18 68
-21 68 -5 0 6 -9 8 -20 4 -28 -9 -25 9 4 29 17 10 35 14 56 10 25 -6 29 -4 24
10 -3 9 -1 16 5 16 6 0 11 5 11 10 0 6 -11 8 -25 4 -27 -7 -35 10 -10 20 8 3
15 11 15 18 0 10 15 12 57 9 57 -3 57 -3 30 -17 -15 -8 -32 -12 -37 -9 -5 3
-11 1 -14 -4 -3 -5 1 -12 10 -15 19 -7 70 18 78 39 3 9 10 14 14 11 5 -3 18 1
28 9 18 14 18 14 -8 15 -32 0 -34 5 -13 26 13 14 17 13 37 0 29 -20 52 -21 44
-1 -3 8 0 15 7 15 8 0 8 3 -2 9 -9 6 -12 19 -8 40 4 18 2 31 -3 31 -10 0 -12
-5 -14 -32 -1 -13 -16 -28 -28 -28 -4 0 -1 19 8 42 15 44 13 58 -9 40 -13 -11
-57 -5 -57 8 0 4 -13 7 -30 8 -16 0 -30 -3 -30 -8z m-15 -131 c9 -13 6 -16
-28 -24 -17 -5 -27 -3 -27 4 0 6 7 11 15 11 18 0 19 11 3 29 -11 11 -9 11 9 2
12 -6 25 -16 28 -22z m73 2 c-23 -30 -38 -39 -38 -23 0 12 39 52 51 52 6 0 0
-13 -13 -29z m-239 -126 c13 -14 18 -25 12 -25 -13 0 -51 31 -51 42 0 15 15 8
39 -17z"/>
<path d="M1350 1248 c0 -12 1 -19 3 -17 1 2 9 12 16 22 12 14 11 17 -3 17 -10
0 -16 -8 -16 -22z"/>
<path d="M990 1238 c0 -20 1 -21 20 -3 11 10 20 20 20 22 0 1 -9 3 -20 3 -14
0 -20 -7 -20 -22z"/>
<path d="M1590 1231 c0 -13 26 -32 33 -24 8 7 -11 33 -24 33 -5 0 -9 -4 -9 -9z"/>
<path d="M1713 1194 c-6 -14 -9 -32 -6 -40 4 -10 -3 -14 -22 -14 -22 0 -26 4
-23 23 2 13 -2 22 -9 21 -37 -3 -42 -5 -39 -16 3 -7 7 -28 10 -47 5 -28 4 -32
-8 -22 -9 8 -16 8 -20 2 -4 -6 3 -15 14 -21 11 -6 20 -17 20 -25 0 -8 5 -15
11 -15 6 0 10 12 9 28 -3 42 -1 45 16 31 14 -11 15 -10 12 7 -2 11 2 18 10 16
7 -1 20 5 29 13 13 13 13 18 1 32 -11 15 -10 16 10 10 18 -4 22 -2 18 10 -3 8
-6 19 -6 24 0 18 -15 8 -27 -17z"/>
<path d="M1355 1179 c-4 -6 -13 -8 -20 -5 -7 2 -16 -2 -19 -10 -9 -22 -8 -23
16 -16 13 3 19 1 15 -5 -4 -6 2 -13 13 -16 17 -4 20 -1 17 29 -2 34 -10 43
-22 23z"/>
<path d="M1015 1150 c-9 -41 1 -51 15 -15 7 18 7 32 1 38 -5 5 -12 -3 -16 -23z"/>
<path d="M1262 1159 c2 -7 10 -15 17 -17 8 -3 12 1 9 9 -2 7 -10 15 -17 17 -8
3 -12 -1 -9 -9z"/>
<path d="M1775 1150 c3 -5 8 -10 11 -10 2 0 4 5 4 10 0 6 -5 10 -11 10 -5 0
-7 -4 -4 -10z"/>
<path d="M1766 1116 c3 -8 12 -12 21 -9 12 5 12 7 1 14 -20 13 -28 11 -22 -5z"/>
<path d="M986 1078 c-3 -13 -1 -27 4 -32 7 -7 10 1 10 22 0 37 -5 41 -14 10z"/>
<path d="M1345 1081 c-3 -5 -1 -12 4 -15 5 -3 11 1 15 9 6 16 -9 21 -19 6z"/>
<path d="M2000 1050 c-16 -16 -36 -30 -45 -30 -8 0 -15 -9 -15 -21 0 -11 -4
-17 -10 -14 -5 3 -10 15 -10 26 0 11 -4 18 -8 15 -5 -3 -7 -20 -4 -37 4 -27 2
-31 -12 -26 -9 4 -16 2 -16 -3 0 -17 -28 -11 -33 8 -4 15 -6 14 -12 -4 -4 -12
-20 -31 -36 -43 -27 -20 -31 -54 -5 -49 27 5 53 -14 63 -47 10 -31 9 -35 -8
-35 -12 0 -16 5 -13 14 4 10 0 13 -14 10 -14 -4 -19 0 -18 17 1 12 -5 24 -11
26 -7 3 -13 -1 -13 -7 0 -7 -11 -21 -25 -32 -14 -11 -23 -23 -21 -26 2 -4 0
-16 -5 -27 -7 -18 -8 -18 -9 5 -2 14 -2 30 0 35 1 6 -4 4 -11 -2 -15 -15 -33
-17 -24 -4 8 14 -9 21 -25 11 -12 -7 -9 -13 12 -33 20 -18 23 -28 15 -36 -8
-8 -8 -11 1 -11 9 0 10 -12 6 -37 l-6 -38 44 -2 43 -2 -28 15 c-24 13 -27 18
-15 32 20 27 22 28 14 8 -5 -16 -3 -18 22 -13 17 3 41 0 57 -9 29 -15 50 -10
25 7 -13 8 -13 10 -1 18 12 8 12 12 2 25 -15 18 -4 21 19 6 8 -5 11 -12 7 -16
-4 -4 -2 -13 4 -21 13 -15 39 -18 39 -3 0 5 -7 7 -16 3 -14 -5 -15 -3 -5 16
10 17 16 19 31 11 24 -13 36 -32 16 -24 -28 11 -17 -20 10 -33 22 -10 32 -10
55 4 32 19 38 35 12 31 -12 -2 -19 4 -21 20 -3 21 -22 32 -22 12 0 -17 -24 -6
-33 14 -5 14 -10 16 -21 7 -18 -15 -26 -4 -17 23 5 11 6 27 4 34 -6 14 13 16
22 2 4 -6 11 -8 16 -4 5 3 16 0 24 -6 8 -6 19 -9 25 -5 5 3 10 1 10 -5 0 -18
-29 -23 -46 -9 -14 12 -16 11 -13 -6 3 -11 11 -20 19 -21 35 -2 40 -5 40 -20
0 -11 6 -13 19 -9 32 10 44 -25 19 -52 -23 -25 -13 -31 16 -10 16 12 17 18 7
49 -11 34 -7 68 8 68 13 0 30 47 21 56 -4 5 -10 18 -12 29 -4 18 -6 17 -16 -7
-16 -40 -32 -44 -32 -9 0 21 7 34 22 42 22 12 22 12 3 21 -16 7 -15 8 8 5 33
-5 34 6 5 35 -20 20 -22 20 -34 4 -11 -16 -13 -16 -19 3 -6 21 -25 29 -25 11
0 -5 5 -10 11 -10 6 0 9 -7 5 -15 -3 -8 2 -21 10 -30 10 -10 13 -22 8 -37 -5
-13 -7 -27 -6 -32 2 -5 -5 -6 -14 -2 -12 5 -15 2 -10 -9 3 -9 2 -13 -4 -10 -6
3 -10 12 -10 19 0 7 -9 22 -21 35 -19 20 -19 22 -3 19 11 -2 20 4 22 14 2 13
-1 16 -12 12 -9 -3 -16 -1 -16 4 0 6 8 12 17 14 16 3 16 4 0 20 -20 20 -21 25
-4 25 23 0 77 46 77 65 0 26 -17 22 -50 -12z m-50 -90 c0 -5 -4 -10 -10 -10
-5 0 -10 5 -10 10 0 6 5 10 10 10 6 0 10 -4 10 -10z m-100 -30 c0 -5 -4 -10
-10 -10 -5 0 -10 5 -10 10 0 6 5 10 10 10 6 0 10 -4 10 -10z m55 0 c-3 -5 -13
-10 -21 -10 -8 0 -14 5 -14 10 0 6 9 10 21 10 11 0 17 -4 14 -10z m155 -130
c0 -5 -4 -10 -10 -10 -5 0 -10 5 -10 10 0 6 5 10 10 10 6 0 10 -4 10 -10z"/>
<path d="M1312 1020 c7 -11 16 -20 20 -20 15 0 8 15 -12 28 -19 12 -20 11 -8
-8z"/>
<path d="M1357 1024 c3 -8 -2 -21 -12 -28 -13 -10 -15 -15 -6 -20 7 -5 18 0
26 10 19 24 19 40 1 47 -10 4 -13 1 -9 -9z"/>
<path d="M1611 1013 c0 -13 -2 -26 -3 -30 -5 -12 53 -9 64 4 7 9 7 13 0 13 -6
0 -13 8 -15 18 -4 13 -5 12 -6 -5 -1 -26 -27 -22 -34 5 -3 12 -5 10 -6 -5z"/>
<path d="M1285 1000 c-3 -5 -1 -10 4 -10 6 0 11 5 11 10 0 6 -2 10 -4 10 -3 0
-8 -4 -11 -10z"/>
<path d="M1306 955 c-3 -9 0 -15 9 -15 16 0 20 16 6 24 -5 3 -11 -1 -15 -9z"/>
<path d="M1615 949 c-10 -15 3 -25 16 -12 7 7 7 13 1 17 -6 3 -14 1 -17 -5z"/>
<path d="M890 925 c-8 -9 -8 -15 -2 -15 12 0 26 19 19 26 -2 2 -10 -2 -17 -11z"/>
<path d="M1232 920 c7 -11 21 -20 32 -20 16 0 15 3 -7 20 -14 11 -28 20 -31
20 -3 0 -1 -9 6 -20z"/>
<path d="M1720 925 c-16 -19 -5 -34 12 -17 7 7 20 12 30 12 10 0 18 5 18 10 0
16 -46 12 -60 -5z"/>
<path d="M950 890 c0 -5 4 -10 9 -10 6 0 13 5 16 10 3 6 -1 10 -9 10 -9 0 -16
-4 -16 -10z"/>
<path d="M1105 860 c-4 -6 -14 -9 -23 -6 -10 3 -34 2 -54 -3 -21 -5 -40 -5
-46 1 -5 5 -14 3 -22 -6 -10 -13 -8 -23 9 -58 19 -40 27 -36 22 9 -2 19 37 26
54 9 19 -19 19 -26 0 -26 -8 0 -15 -4 -15 -10 0 -9 41 -15 85 -12 11 1 16 -1
10 -5 -5 -5 -17 -17 -25 -27 -14 -18 -14 -19 8 -7 12 6 22 9 22 6 0 -4 8 1 17
11 10 10 19 12 21 6 2 -6 9 -9 17 -6 16 6 97 -29 114 -49 9 -12 8 -16 -2 -20
-8 -3 -16 -16 -19 -30 -4 -23 -3 -24 49 -23 29 1 53 4 53 9 0 7 -15 11 -36 8
-11 -1 -28 28 -21 36 2 2 20 -4 40 -12 45 -19 47 -19 47 0 0 8 -4 15 -9 15 -5
0 -2 14 6 32 12 24 13 33 4 36 -8 3 -6 8 6 17 10 8 14 17 9 22 -5 4 -11 2 -13
-4 -5 -13 -33 -18 -33 -7 0 4 7 12 17 19 9 7 13 17 9 24 -6 9 -11 9 -21 1 -15
-12 -35 -6 -35 11 0 5 7 9 15 9 8 0 15 6 15 14 0 18 -50 8 -57 -12 -4 -9 4
-24 20 -38 l26 -22 -20 -26 c-19 -24 -21 -24 -38 -8 -15 14 -16 19 -4 28 12
10 11 12 -1 17 -8 3 -16 21 -18 39 -3 29 -5 30 -13 13 -15 -36 -47 -48 -38
-15 4 14 0 20 -12 20 -11 0 -15 -5 -11 -15 4 -11 -1 -15 -19 -15 -16 0 -25 -6
-25 -16 0 -10 6 -14 15 -10 8 3 14 2 14 -2 -3 -21 3 -24 16 -6 13 17 14 17 15
2 0 -26 -42 -27 -66 -3 -8 7 -23 11 -34 8 -16 -4 -20 0 -20 21 0 14 -5 26 -12
26 -6 0 -3 9 7 20 10 11 15 20 12 20 -3 0 -9 -5 -12 -10z m278 -131 c-17 -17
-36 -1 -20 16 7 8 16 10 22 4 5 -6 5 -13 -2 -20z"/>
<path d="M1410 830 c0 -5 5 -10 10 -10 6 0 10 5 10 10 0 6 -4 10 -10 10 -5 0
-10 -4 -10 -10z"/>
<path d="M1463 800 c0 -16 4 -27 9 -24 9 6 7 54 -3 54 -3 0 -6 -13 -6 -30z"/>
<path d="M1530 799 c0 -21 26 -43 40 -34 5 3 10 0 10 -8 0 -8 7 -21 16 -28 15
-12 14 -14 -7 -20 -35 -10 -59 -10 -59 0 0 5 10 11 22 14 12 4 20 9 16 12 -3
3 -17 1 -32 -5 -34 -12 -32 -46 2 -43 25 3 29 -9 7 -27 -8 -7 -15 -19 -15 -27
0 -13 3 -13 15 -3 8 7 15 18 15 25 0 7 7 15 15 19 18 7 20 -8 2 -26 -7 -7 -16
-21 -20 -32 -7 -17 -4 -18 35 -11 24 4 53 8 66 8 15 -1 22 5 22 19 0 14 -5 18
-15 15 -22 -9 -30 14 -10 29 20 15 20 15 -10 33 -18 10 -16 10 9 5 25 -6 28
-4 23 10 -4 10 -7 22 -7 27 0 5 -5 9 -11 9 -5 0 -7 -4 -4 -10 3 -5 -1 -10 -10
-10 -12 0 -15 6 -10 20 7 22 -5 26 -22 9 -13 -13 -36 -3 -27 12 3 5 9 7 14 4
5 -3 11 -1 15 5 9 14 -28 13 -43 -2 -9 -9 -15 -8 -27 8 -12 16 -14 16 -15 3z"/>
<path d="M1493 770 c-9 -24 -9 -30 2 -30 17 0 24 20 16 43 -5 14 -8 12 -18
-13z"/>
<path d="M900 771 c0 -5 12 -8 26 -8 18 0 22 2 13 8 -18 11 -39 11 -39 0z"/>
<path d="M1442 753 c-6 -2 -10 -9 -6 -14 8 -14 21 -11 28 6 6 15 1 17 -22 8z"/>
<path d="M1066 741 c-4 -7 -5 -15 -2 -18 9 -9 19 4 14 18 -4 11 -6 11 -12 0z"/>
<path d="M1180 705 c-11 -13 -10 -14 4 -9 9 3 16 10 16 15 0 13 -6 11 -20 -6z"/>
<path d="M1430 700 c0 -5 5 -10 10 -10 6 0 10 5 10 10 0 6 -4 10 -10 10 -5 0
-10 -4 -10 -10z"/>
<path d="M1466 692 c-2 -4 -1 -14 5 -22 12 -21 11 -30 -4 -30 -17 0 -67 -23
-67 -31 0 -3 11 -16 25 -29 14 -13 25 -20 25 -15 0 4 -7 13 -15 19 -10 8 -12
16 -5 26 7 11 12 12 21 3 8 -8 20 -8 39 -1 27 9 27 11 14 36 -8 15 -14 33 -14
40 0 13 -16 16 -24 4z"/>
<path d="M1045 680 c-3 -5 -2 -10 4 -10 5 0 13 5 16 10 3 6 2 10 -4 10 -5 0
-13 -4 -16 -10z"/>
<path d="M1800 670 c0 -5 7 -10 15 -10 8 0 15 5 15 10 0 6 -7 10 -15 10 -8 0
-15 -4 -15 -10z"/>
<path d="M1880 661 c0 -10 36 -21 44 -14 3 3 3 10 0 14 -7 12 -44 12 -44 0z"/>
<path d="M1485 560 c-3 -5 1 -10 9 -10 8 0 18 5 21 10 3 6 -1 10 -9 10 -8 0
-18 -4 -21 -10z"/>
<path d="M1237 432 c-12 -13 -17 -37 -17 -85 0 -57 3 -68 22 -81 30 -21 54
-20 78 4 28 28 29 139 2 163 -24 22 -65 21 -85 -1z m75 -9 c26 -24 25 -116 -2
-143 -19 -19 -40 -18 -67 3 -8 5 -13 32 -13 65 0 81 38 115 82 75z"/>
<path d="M1413 443 l27 -4 0 -90 c0 -53 4 -89 10 -89 6 0 10 36 10 89 l0 90
28 4 c15 2 -2 4 -38 4 -36 0 -53 -2 -37 -4z"/>
<path d="M1569 438 c-5 -70 -2 -171 6 -177 16 -12 92 -13 100 -2 4 7 -11 11
-44 11 l-51 0 0 39 c0 40 0 40 43 44 l42 4 -43 1 -43 2 3 38 c3 37 4 37 53 43
l50 6 -57 1 c-40 2 -58 -2 -59 -10z"/>
<path d="M1752 355 l3 -100 53 -3 c30 -2 52 1 52 7 0 5 -21 11 -47 13 l-48 3
-1 83 c-1 46 -5 86 -8 90 -4 3 -5 -39 -4 -93z"/>
<path d="M1926 434 c-20 -19 -21 -58 -2 -73 8 -7 30 -15 50 -18 39 -6 51 -25
36 -54 -12 -22 -68 -27 -88 -7 -9 9 -12 9 -12 0 0 -19 45 -35 75 -28 32 8 54
50 38 74 -5 9 -30 24 -54 32 -46 17 -60 40 -38 66 9 11 23 14 49 10 24 -4 30
-3 20 4 -23 15 -57 12 -74 -6z"/>
<path d="M1020 349 c0 -59 4 -88 10 -84 6 4 9 23 8 43 l-3 37 48 3 47 3 0 -45
c0 -26 5 -46 10 -46 6 0 10 37 10 90 0 50 -4 90 -9 90 -5 0 -9 -17 -8 -37 l2
-38 -50 0 -50 0 2 38 c2 20 -2 37 -7 37 -6 0 -10 -38 -10 -91z"/>
<path d="M1034 159 c-7 -12 15 -59 28 -59 14 0 9 18 -8 24 -10 4 -13 13 -9 26
7 22 0 27 -11 9z"/>
<path d="M1161 141 c0 -19 2 -31 6 -28 3 4 12 2 18 -3 9 -7 12 -2 13 20 0 17
-4 30 -9 30 -6 0 -8 -4 -4 -9 3 -5 1 -12 -4 -15 -5 -4 -12 4 -14 16 -3 16 -5
13 -6 -11z"/>
<path d="M1257 163 c-4 -3 -7 -20 -7 -37 0 -28 1 -29 14 -10 9 12 11 21 4 25
-6 4 -3 11 8 18 15 8 16 10 3 11 -9 0 -19 -3 -22 -7z"/>
<path d="M1506 161 c-3 -5 2 -8 12 -7 13 1 17 -6 15 -27 -1 -15 2 -25 8 -22
13 9 11 39 -3 53 -14 14 -25 15 -32 3z"/>
<path d="M1597 144 c-3 -19 -1 -24 10 -20 8 3 18 6 21 6 4 0 0 5 -8 10 -13 9
-13 11 0 20 13 8 13 10 -1 10 -10 0 -19 -10 -22 -26z"/>
<path d="M1800 160 c-8 -5 -12 -11 -10 -14 3 -2 14 2 24 10 22 15 10 19 -14 4z"/>
<path d="M1892 135 c0 -22 2 -32 5 -22 2 9 10 17 16 17 9 0 9 2 1 8 -6 4 -14
14 -17 22 -3 8 -5 -3 -5 -25z"/>
<path d="M1983 155 c-5 -16 27 -49 37 -38 3 2 -4 11 -15 19 -17 13 -18 16 -5
24 10 7 11 10 2 10 -7 0 -15 -7 -19 -15z"/>
<path d="M1340 154 c0 -13 39 -54 44 -46 3 5 -6 19 -19 30 -14 12 -25 19 -25
16z"/>
<path d="M1690 146 c0 -9 5 -16 10 -16 6 0 10 4 10 9 0 6 -4 13 -10 16 -5 3
-10 -1 -10 -9z"/>
<path d="M1720 121 c0 -6 5 -13 10 -16 6 -3 10 1 10 9 0 9 -4 16 -10 16 -5 0
-10 -4 -10 -9z"/>
<path d="M1015 110 c3 -5 8 -10 11 -10 2 0 4 5 4 10 0 6 -5 10 -11 10 -5 0 -7
-4 -4 -10z"/>
<path d="M1790 111 c0 -5 7 -12 16 -15 14 -5 15 -4 4 9 -14 17 -20 19 -20 6z"/>
</g>
</svg>
